<svg xmlns="http://www.w3.org/2000/svg" viewBox="0 0 256 256"><defs><style>.cls-1{fill:#2462ab;}</style></defs><title>icon</title><g id="Layer_2" data-name="Layer 2"><g id="Layer_1-2" data-name="Layer 1"><path class="cls-1" d="M94.92,255.3V227.52c0-20.18,0-40.39.21-60.57,0-5.87-1.34-7.95-7.63-7.84-27,.39-54,0-80.86.28C1.79,159.39,0,158.3,0,153.1q.46-25.77,0-51.57c0-5.17,1.83-6.29,6.61-6.29,28.79.18,57.58,0,86.38,0,5,0,7.42-.6,7.35-6.64-.28-26,0-56,0-82V.46C102.27.25,103.6,0,104.94,0h45c3.76,0,5.45,1,5.41,5V79.34a26.3,26.3,0,0,1-26.56,26l-.76,0H18.84c-8.58,0-8.58,0-8.61,8.37,0,9.81.21,19.58,0,29.39,0,4.75,1.55,6.22,6.22,6.19H98.61c7.77,0,7.77,0,7.77,8.05v76.78c0,5.55,1.3,7.87,7.35,7.63,10.16-.46,20.39-.32,30.58,0,4.68,0,6.22-1.09,6.19-6-.18-34,0-68,0-101.95a56,56,0,0,1,.63-10.12,27.42,27.42,0,0,1,26.26-22.57c24.4-.32,48.8,0,73.16-.21,3.52,0,5.52,1,5.45,5.1,0,13.57-.32,27.17,0,40.74,0,5.77-2.18,7-7.42,6.86-26.4-.21-52.73,0-79.17,0-5.8,0-7.63,1.93-7.56,7.59.21,27.77,0,55.58.28,83.35,0,5.62-1.27,11.57-7.31,11.43-17.79-.46-35.58,0-53.37-.18C99.38,255.65,97.41,255.44,94.92,255.3Z"/></g></g></svg>